<?xml version="1.0" standalone="no"?>
<!DOCTYPE svg PUBLIC "-//W3C//DTD SVG 20010904//EN"
 "http://www.w3.org/TR/2001/REC-SVG-20010904/DTD/svg10.dtd">
<svg version="1.0" xmlns="http://www.w3.org/2000/svg"
 width="1000.000000pt" height="1000.000000pt" viewBox="0 0 1000.000000 1000.000000"
 preserveAspectRatio="xMidYMid meet">
<metadata>
Created by potrace 1.14, written by Peter Selinger 2001-2017
</metadata>
<g transform="translate(0.000000,1000.000000) scale(0.100000,-0.100000)"
fill="#000000" stroke="none">
<path d="M872 8405 l0 -1345 21 -1 c32 -1 1918 -1 1943 0 21 1 21 3 22 329 0
180 1 334 1 343 1 15 48 16 485 17 l483 2 1 -450 0 -450 -71 -1 c-40 0 -384 0
-764 0 l-693 -1 -1 -26 c0 -15 -1 -411 -2 -880 l-2 -852 665 0 665 0 0 198
c-1 108 1 204 3 212 3 14 67 17 188 11 17 -1 17 -2991 0 -2992 -6 0 -148 -1
-316 -2 l-305 -2 -2 -1132 -2 -1133 1809 0 1809 0 0 1133 -1 1134 -301 1
c-166 0 -309 1 -318 1 -15 1 -17 118 -17 1495 l0 1495 98 3 c82 2 100 0 103
-12 2 -8 3 -104 2 -212 l-1 -198 666 0 665 0 -1 877 -1 878 -749 2 c-412 1
-757 2 -766 2 -15 1 -17 35 -16 450 l1 449 483 0 484 0 1 -21 c0 -12 1 -167 1
-344 l1 -323 26 -1 c14 0 460 -1 991 -1 l965 -1 1 1347 1 1346 -4128 0 -4128
0 1 -1345z"/>
</g>
</svg>
